<svg width="200" height="200" viewBox="0 0 200 200" xmlns="http://www.w3.org/2000/svg">
  <rect width="200" height="200" fill="#1a1a1a"/>
  <g transform="translate(100, 85)">
    <!-- Cat body -->
    <path d="M -30 -20 
             C -30 -40, -25 -45, -20 -45
             L -15 -50
             C -10 -55, -5 -52, -5 -45
             L 5 -45
             C 5 -52, 10 -55, 15 -50
             L 20 -45
             C 25 -45, 30 -40, 30 -20
             L 30 10
             C 30 20, 25 25, 15 25
             L -15 25
             C -25 25, -30 20, -30 10
             Z" 
          fill="none" 
          stroke="#8b5cf6" 
          stroke-width="4"/>
    
    <!-- Cat face -->
    <circle cx="-10" cy="-15" r="3" fill="#8b5cf6"/>
    <circle cx="10" cy="-15" r="3" fill="#8b5cf6"/>
    <path d="M -8 -5 Q 0 0, 8 -5" fill="none" stroke="#8b5cf6" stroke-width="3" stroke-linecap="round"/>
    
    <!-- Tail -->
    <path d="M -30 10 Q -45 15, -40 30 T -30 40" fill="none" stroke="#8b5cf6" stroke-width="4" stroke-linecap="round"/>
    
    <!-- Keyboard -->
    <g transform="translate(15, 5) rotate(-15)">
      <rect x="0" y="0" width="40" height="25" fill="none" stroke="#8b5cf6" stroke-width="4" rx="3"/>
      <!-- Keys -->
      <line x1="10" y1="0" x2="10" y2="25" stroke="#8b5cf6" stroke-width="2"/>
      <line x1="20" y1="0" x2="20" y2="25" stroke="#8b5cf6" stroke-width="2"/>
      <line x1="30" y1="0" x2="30" y2="25" stroke="#8b5cf6" stroke-width="2"/>
      <line x1="0" y1="8" x2="40" y2="8" stroke="#8b5cf6" stroke-width="2"/>
      <line x1="0" y1="17" x2="40" y2="17" stroke="#8b5cf6" stroke-width="2"/>
    </g>
  </g>
  
  <!-- Text -->
  <text x="100" y="150" font-family="Arial, sans-serif" font-size="28" font-weight="bold" fill="#8b5cf6" text-anchor="middle">VIBESYNTH</text>
</svg>